<svg width="824" height="874" viewBox="0 0 824 874" fill="none" xmlns="http://www.w3.org/2000/svg">
<ellipse cx="411" cy="437.5" rx="221" ry="228.5" fill="#F9FFED"/>
<ellipse cx="197" cy="670.5" rx="197" ry="203.5" fill="#F9FFED"/>
<ellipse cx="627" cy="203.5" rx="197" ry="203.5" fill="#F9FFED"/>
<line y1="-9.5" x2="268.057" y2="-9.5" transform="matrix(-0.705617 0.708594 -0.705617 -0.708594 627.283 161.142)" stroke="#757575" stroke-width="19"/>
<line y1="-9.5" x2="268.057" y2="-9.5" transform="matrix(-0.705617 0.708594 -0.705617 -0.708594 665.971 204.31)" stroke="#757575" stroke-width="19"/>
<line y1="-9.5" x2="268.057" y2="-5.19216" transform="matrix(-0.705617 0.708594 -0.705617 -0.708594 330.668 471.958)" stroke="#757575" stroke-width="19"/>
<line y1="-9.5" x2="268.057" y2="-5.19216" transform="matrix(-0.705617 0.708594 -0.705617 -0.708594 369.356 515.127)" stroke="#757575" stroke-width="19"/>
<ellipse cx="627.443" cy="203.981" rx="127.443" ry="127.981" fill="#3E3E3E"/>
<ellipse cx="197.443" cy="671.019" rx="127.443" ry="127.981" fill="#3E3E3E"/>
<path d="M555.171 476.182C535.361 555.631 454.883 603.982 375.415 584.17C295.98 564.362 247.623 483.889 267.442 404.445C287.243 324.986 367.721 276.63 447.166 296.438C526.628 316.246 574.981 396.728 555.171 476.182Z" fill="#F7931A"/>
<path d="M476.7 419.178C479.652 399.444 464.626 388.836 444.079 381.759L450.744 355.027L434.47 350.972L427.981 376.999C423.703 375.933 419.309 374.928 414.943 373.931L421.478 347.732L405.214 343.677L398.544 370.4C395.003 369.593 391.527 368.796 388.152 367.957L388.171 367.874L365.728 362.271L361.399 379.65C361.399 379.65 373.473 382.417 373.218 382.588C379.809 384.234 381.001 388.595 380.801 392.052L373.209 422.505C373.663 422.621 374.252 422.788 374.901 423.047C374.359 422.913 373.779 422.765 373.181 422.621L362.539 465.281C361.733 467.284 359.689 470.287 355.082 469.147C355.244 469.383 343.253 466.194 343.253 466.194L335.174 484.82L356.352 490.099C360.291 491.086 364.152 492.12 367.953 493.093L361.218 520.131L377.473 524.186L384.143 497.436C388.583 498.641 392.894 499.753 397.112 500.8L390.465 527.425L406.739 531.48L413.474 504.494C441.223 509.745 462.09 507.627 470.874 482.531C477.951 462.325 470.521 450.669 455.921 443.068C466.554 440.617 474.563 433.623 476.7 419.178V419.178ZM439.518 471.311C434.489 491.517 400.463 480.594 389.432 477.855L398.368 442.035C409.399 444.788 444.774 450.238 439.518 471.311ZM444.551 418.886C439.963 437.266 411.643 427.928 402.456 425.638L410.558 393.15C419.745 395.44 449.33 399.713 444.551 418.886V418.886Z" fill="white"/>
</svg>