<svg width="128" height="83" viewBox="0 0 128 83" fill="none" xmlns="http://www.w3.org/2000/svg">
<path d="M104.977 81.9434H104.977L18.7481 82.002C8.41405 80.0211 0.60376 70.9353 0.60376 60.0185C0.60376 47.6523 10.6241 37.6274 22.9838 37.6274C24.0897 37.6274 25.178 37.7103 26.2422 37.8657L26.7856 37.9451L26.8138 37.3967C27.4223 25.5744 37.1959 16.178 49.1632 16.178C55.4981 16.178 61.2142 18.8166 65.2867 23.0518L66.1064 23.9043L66.1468 22.7223C66.5571 10.7136 76.4088 1.10516 88.5071 1.10516C100.867 1.10516 110.887 11.1301 110.887 23.4963C110.887 28.5236 109.232 33.1608 106.438 36.8989L105.891 37.6294L106.801 37.6969C118.374 38.5566 127.5 48.2183 127.5 60.0185C127.5 72.3679 117.354 81.9434 104.977 81.9434Z" fill="white" stroke="black"/>
</svg>