<svg width="99" height="92" viewBox="0 0 99 92" fill="none" xmlns="http://www.w3.org/2000/svg">
<g clip-path="url(#clip0_2_125)">
<path d="M43.5409 9.6237C43.5409 9.95098 43.5246 10.2774 43.4927 10.6031C43.4609 10.9287 43.4128 11.2519 43.3491 11.5734C43.2855 11.8941 43.2071 12.2115 43.1125 12.5249C43.0178 12.8382 42.9077 13.1458 42.7836 13.4485C42.6588 13.7503 42.5193 14.0464 42.3659 14.3351C42.2125 14.6239 42.0452 14.9036 41.864 15.1759C41.6829 15.4482 41.4895 15.7107 41.2831 15.9641C41.0758 16.2167 40.8579 16.4595 40.627 16.6908C40.3969 16.9221 40.1562 17.142 39.904 17.3495C39.6519 17.557 39.3908 17.7514 39.1199 17.9335C38.849 18.1156 38.5699 18.2837 38.2827 18.4379C37.9955 18.5921 37.7017 18.7324 37.4006 18.8571C37.0995 18.9826 36.7935 19.0925 36.4818 19.1876C36.1701 19.2828 35.8543 19.3623 35.5344 19.4263C35.2154 19.4903 34.8931 19.5379 34.5691 19.5699C34.2452 19.6019 33.9196 19.6183 33.594 19.6183C33.2685 19.6183 32.9437 19.6019 32.6189 19.5699C32.295 19.5379 31.9735 19.4903 31.6536 19.4263C31.3346 19.3623 31.0188 19.2828 30.7071 19.1876C30.3954 19.0925 30.0886 18.9826 29.7875 18.8571C29.4872 18.7324 29.1926 18.5921 28.9054 18.4379C28.6182 18.2837 28.3391 18.1156 28.0682 17.9335C27.7973 17.7514 27.5362 17.557 27.284 17.3495C27.0327 17.142 26.7912 16.9221 26.5611 16.6908C26.331 16.4595 26.1123 16.2167 25.9058 15.9641C25.6986 15.7107 25.5052 15.4482 25.324 15.1759C25.1429 14.9036 24.9756 14.6239 24.8222 14.3351C24.6688 14.0464 24.5293 13.7503 24.4052 13.4485C24.2804 13.1458 24.1702 12.8382 24.0764 12.5249C23.9817 12.2115 23.9026 11.8941 23.839 11.5734C23.7753 11.2519 23.728 10.9287 23.6953 10.6031C23.6635 10.2774 23.648 9.95098 23.648 9.6237C23.648 9.29561 23.6635 8.96916 23.6953 8.64352C23.728 8.31789 23.7753 7.99472 23.839 7.67319C23.9026 7.35247 23.9817 7.03504 24.0764 6.72171C24.1702 6.40838 24.2804 6.1008 24.4052 5.79813C24.5293 5.49628 24.6688 5.20018 24.8222 4.91146C24.9756 4.62273 25.1429 4.34303 25.324 4.07072C25.5052 3.7984 25.6986 3.53592 25.9058 3.28247C26.1123 3.02984 26.331 2.78705 26.5611 2.55574C26.7912 2.32444 27.0327 2.10461 27.284 1.89709C27.5362 1.68958 27.7973 1.49518 28.0682 1.31309C28.3391 1.131 28.6182 0.962848 28.9054 0.808644C29.1926 0.654439 29.4872 0.515 29.7875 0.389504C30.0886 0.264008 30.3954 0.154097 30.7071 0.0589495C31.0188 -0.0361977 31.3346 -0.11576 31.6536 -0.179739C31.9735 -0.242897 32.295 -0.291291 32.6189 -0.32328C32.9437 -0.355269 33.2685 -0.371674 33.594 -0.371674C33.9196 -0.371674 34.2452 -0.355269 34.5691 -0.32328C34.8931 -0.291291 35.2154 -0.242897 35.5344 -0.179739C35.8543 -0.11576 36.1701 -0.0361977 36.4818 0.0589495C36.7935 0.154097 37.0995 0.264008 37.4006 0.389504C37.7017 0.515 37.9955 0.654439 38.2827 0.808644C38.5699 0.962848 38.849 1.131 39.1199 1.31309C39.3908 1.49518 39.6519 1.68958 39.904 1.89709C40.1562 2.10461 40.3969 2.32444 40.627 2.55574C40.8579 2.78705 41.0758 3.02984 41.2831 3.28247C41.4895 3.53592 41.6829 3.7984 41.864 4.07072C42.0452 4.34303 42.2125 4.62273 42.3659 4.91146C42.5193 5.20018 42.6588 5.49628 42.7836 5.79813C42.9077 6.1008 43.0178 6.40838 43.1125 6.72171C43.2071 7.03504 43.2855 7.35247 43.3491 7.67319C43.4128 7.99472 43.4609 8.31789 43.4927 8.64352C43.5246 8.96916 43.5409 9.29561 43.5409 9.6237Z" fill="#49DE64"/>
<path d="M74.9709 9.6237C74.9709 9.95098 74.9554 10.2774 74.9228 10.6031C74.891 10.9287 74.8437 11.2519 74.78 11.5734C74.7164 11.8941 74.6372 12.2115 74.5426 12.5249C74.4479 12.8382 74.3386 13.1458 74.2137 13.4485C74.0889 13.7503 73.9502 14.0464 73.7967 14.3351C73.6433 14.6239 73.4761 14.9036 73.2949 15.1759C73.1138 15.4482 72.9196 15.7107 72.7131 15.9641C72.5067 16.2167 72.288 16.4595 72.0579 16.6908C71.8278 16.9221 71.5862 17.142 71.3349 17.3495C71.0828 17.557 70.8217 17.7514 70.5508 17.9335C70.2799 18.1156 70.0008 18.2837 69.7136 18.4379C69.4263 18.5921 69.1318 18.7324 68.8307 18.8571C68.5304 18.9826 68.2236 19.0925 67.9119 19.1876C67.6002 19.2828 67.2844 19.3623 66.9653 19.4263C66.6455 19.4903 66.324 19.5379 65.9992 19.5699C65.6753 19.6019 65.3505 19.6183 65.0249 19.6183C64.6985 19.6183 64.3738 19.6019 64.0498 19.5699C63.7259 19.5379 63.4036 19.4903 63.0845 19.4263C62.7646 19.3623 62.4489 19.2828 62.1371 19.1876C61.8254 19.0925 61.5194 18.9826 61.2183 18.8571C60.9172 18.7324 60.6235 18.5921 60.3363 18.4379C60.049 18.2837 59.77 18.1156 59.4991 17.9335C59.2282 17.7514 58.9662 17.557 58.7149 17.3495C58.4628 17.142 58.2221 16.9221 57.9911 16.6908C57.761 16.4595 57.5423 16.2167 57.3359 15.9641C57.1294 15.7107 56.9352 15.4482 56.7549 15.1759C56.5738 14.9036 56.4065 14.6239 56.2531 14.3351C56.0989 14.0464 55.9601 13.7503 55.8353 13.4485C55.7105 13.1458 55.6011 12.8382 55.5065 12.5249C55.4118 12.2115 55.3327 11.8941 55.269 11.5734C55.2062 11.2519 55.158 10.9287 55.1262 10.6031C55.0944 10.2774 55.0781 9.95098 55.0781 9.6237C55.0781 9.29561 55.0944 8.96916 55.1262 8.64352C55.158 8.31789 55.2062 7.99472 55.269 7.67319C55.3327 7.35247 55.4118 7.03504 55.5065 6.72171C55.6011 6.40838 55.7105 6.1008 55.8353 5.79813C55.9601 5.49628 56.0989 5.20018 56.2531 4.91146C56.4065 4.62273 56.5738 4.34303 56.7549 4.07072C56.9352 3.7984 57.1294 3.53592 57.3359 3.28247C57.5423 3.02984 57.761 2.78705 57.9911 2.55574C58.2221 2.32444 58.4628 2.10461 58.7149 1.89709C58.9662 1.68958 59.2282 1.49518 59.4991 1.31309C59.77 1.131 60.049 0.962848 60.3363 0.808644C60.6235 0.654439 60.9172 0.515 61.2183 0.389504C61.5194 0.264008 61.8254 0.154097 62.1371 0.0589495C62.4489 -0.0361977 62.7646 -0.11576 63.0845 -0.179739C63.4036 -0.242897 63.7259 -0.291291 64.0498 -0.32328C64.3738 -0.355269 64.6985 -0.371674 65.0249 -0.371674C65.3505 -0.371674 65.6753 -0.355269 65.9992 -0.32328C66.324 -0.291291 66.6455 -0.242897 66.9653 -0.179739C67.2844 -0.11576 67.6002 -0.0361977 67.9119 0.0589495C68.2236 0.154097 68.5304 0.264008 68.8307 0.389504C69.1318 0.515 69.4263 0.654439 69.7136 0.808644C70.0008 0.962848 70.2799 1.131 70.5508 1.31309C70.8217 1.49518 71.0828 1.68958 71.3349 1.89709C71.5862 2.10461 71.8278 2.32444 72.0579 2.55574C72.288 2.78705 72.5067 3.02984 72.7131 3.28247C72.9196 3.53592 73.1138 3.7984 73.2949 4.07072C73.4761 4.34303 73.6433 4.62273 73.7967 4.91146C73.9502 5.20018 74.0889 5.49628 74.2137 5.79813C74.3386 6.1008 74.4479 6.40838 74.5426 6.72171C74.6372 7.03504 74.7164 7.35247 74.78 7.67319C74.8437 7.99472 74.891 8.31789 74.9228 8.64352C74.9554 8.96916 74.9709 9.29561 74.9709 9.6237Z" fill="#49DE64"/>
<path d="M61.4975 47.6572C61.4975 48.0501 61.4787 48.4421 61.4403 48.8334C61.402 49.2238 61.3449 49.6118 61.2682 49.9973C61.1923 50.3828 61.0976 50.7634 60.9834 51.1391C60.87 51.5147 60.7386 51.8846 60.5893 52.2472C60.4399 52.6097 60.2727 52.9649 60.0882 53.311C59.9038 53.658 59.7031 53.9943 59.486 54.3207C59.269 54.6472 59.0364 54.9622 58.7884 55.2665C58.5403 55.57 58.2784 55.8603 58.0018 56.1384C57.7252 56.4156 57.4363 56.6797 57.1336 56.9291C56.8316 57.1776 56.5183 57.4114 56.1935 57.6296C55.868 57.8477 55.5334 58.0495 55.1883 58.2349C54.8439 58.4203 54.4906 58.5876 54.1299 58.7385C53.7684 58.8886 53.4012 59.0207 53.0267 59.1347C52.653 59.2487 52.2744 59.3439 51.8909 59.421C51.5073 59.4972 51.1214 59.5547 50.7322 59.5932C50.3429 59.6318 49.9529 59.6514 49.562 59.6514C49.1712 59.6514 48.7811 59.6318 48.3919 59.5932C48.0035 59.5547 47.6167 59.4972 47.2332 59.421C46.8505 59.3439 46.4711 59.2487 46.0974 59.1347C45.7236 59.0207 45.3556 58.8886 44.9941 58.7385C44.6335 58.5876 44.2802 58.4203 43.9358 58.2349C43.5907 58.0495 43.2561 57.8477 42.9313 57.6296C42.6058 57.4114 42.2924 57.1776 41.9905 56.9291C41.6878 56.6797 41.3989 56.4156 41.1223 56.1384C40.8457 55.8603 40.5837 55.57 40.3357 55.2665C40.0876 54.9622 39.8551 54.6472 39.638 54.3207C39.421 53.9943 39.2202 53.658 39.0358 53.311C38.8514 52.9649 38.685 52.6097 38.5348 52.2472C38.3855 51.8846 38.2541 51.5147 38.1407 51.1391C38.0273 50.7634 37.9318 50.3828 37.8559 49.9973C37.7792 49.6118 37.7221 49.2238 37.6837 48.8334C37.6454 48.4421 37.6266 48.0501 37.6266 47.6572C37.6266 47.2643 37.6454 46.873 37.6837 46.4818C37.7221 46.0905 37.7792 45.7025 37.8559 45.3179C37.9318 44.9323 38.0273 44.5518 38.1407 44.1761C38.2541 43.7996 38.3855 43.4305 38.5348 43.0679C38.685 42.7046 38.8514 42.3502 39.0358 42.0033C39.2202 41.6571 39.421 41.3209 39.638 40.9944C39.8551 40.6671 40.0876 40.3522 40.3357 40.0487C40.5837 39.7452 40.8457 39.454 41.1223 39.1768C41.3989 38.8987 41.6878 38.6354 41.9905 38.3861C42.2924 38.1367 42.6058 37.9029 42.9313 37.6848C43.2561 37.4666 43.5907 37.2648 43.9358 37.0802C44.2802 36.8949 44.6335 36.7267 44.9941 36.5766C45.3556 36.4265 45.7236 36.2945 46.0974 36.1804C46.4711 36.0664 46.8505 35.9705 47.2332 35.8942C47.6167 35.8179 48.0035 35.7597 48.3919 35.7211C48.7811 35.6826 49.1712 35.6637 49.562 35.6637C49.9529 35.6637 50.3429 35.6826 50.7322 35.7211C51.1214 35.7597 51.5073 35.8179 51.8909 35.8942C52.2744 35.9705 52.653 36.0664 53.0267 36.1804C53.4012 36.2945 53.7684 36.4265 54.1299 36.5766C54.4906 36.7267 54.8439 36.8949 55.1883 37.0802C55.5334 37.2648 55.868 37.4666 56.1935 37.6848C56.5183 37.9029 56.8316 38.1367 57.1336 38.3861C57.4363 38.6354 57.7252 38.8987 58.0018 39.1768C58.2784 39.454 58.5403 39.7452 58.7884 40.0487C59.0364 40.3522 59.269 40.6671 59.486 40.9944C59.7031 41.3209 59.9038 41.6571 60.0882 42.0033C60.2727 42.3502 60.4399 42.7046 60.5893 43.0679C60.7386 43.4305 60.87 43.7996 60.9834 44.1761C61.0976 44.5518 61.1923 44.9323 61.2682 45.3179C61.3449 45.7025 61.402 46.0905 61.4403 46.4818C61.4787 46.873 61.4975 47.2643 61.4975 47.6572Z" fill="#49DE64"/>
<path d="M49.562 91.634C37.3157 91.634 32.9159 88.5836 32.4541 88.2358C31.9531 87.8601 31.6585 87.2663 31.6585 86.6371V79.6405C31.6585 69.7198 39.6911 61.6504 49.562 61.6504C59.4346 61.6504 67.4656 69.7198 67.4656 79.6405V86.6371C67.4656 87.2646 67.171 87.8585 66.67 88.2358C66.2106 88.5836 61.8083 91.634 49.562 91.634Z" fill="#49DE64"/>
<path d="M35.0326 63.2449C33.0906 55.4231 26.0568 49.6028 17.6799 49.6028C7.80893 49.6028 -0.223618 57.6722 -0.223618 67.5929V74.5895C-0.223618 75.217 0.0709526 75.8109 0.571967 76.1882C1.03381 76.536 5.4336 79.5864 17.6799 79.5864C21.923 79.5864 25.2057 79.2165 27.7279 78.7235C27.9801 72.5767 30.7479 67.0836 35.0326 63.2449Z" fill="#49DE64"/>
<path d="M81.3364 49.6028C72.9881 49.6028 65.9755 55.3838 64.0041 63.1653C68.3452 67.0114 71.1497 72.5463 71.4002 78.7449C73.9085 79.2271 77.1553 79.5864 81.3364 79.5864C93.5811 79.5864 97.9833 76.536 98.4443 76.1882C98.9453 75.8125 99.2399 75.2187 99.2399 74.5895V67.5929C99.2399 57.6722 91.2098 49.6028 81.3364 49.6028Z" fill="#49DE64"/>
<path d="M93.3257 35.6637C93.3257 36.0566 93.3069 36.4486 93.2686 36.8391C93.2302 37.2303 93.1731 37.6183 93.0964 38.0038C93.0205 38.3885 92.9259 38.7691 92.8124 39.1456C92.699 39.5212 92.5668 39.8903 92.4175 40.2537C92.2682 40.6162 92.1009 40.9714 91.9165 41.3175C91.7321 41.6637 91.5313 42.0008 91.3143 42.3273C91.0972 42.6537 90.8647 42.9687 90.6166 43.2722C90.3686 43.5757 90.1066 43.8668 89.83 44.1449C89.5534 44.4221 89.2645 44.6854 88.9626 44.9348C88.6599 45.1841 88.3466 45.4179 88.0218 45.6361C87.6962 45.8543 87.3617 46.056 87.0165 46.2414C86.6722 46.426 86.3188 46.5941 85.9582 46.7442C85.5967 46.8951 85.2295 47.0272 84.855 47.1412C84.4813 47.2552 84.1026 47.3504 83.7191 47.4267C83.3356 47.5038 82.9497 47.5612 82.5604 47.5997C82.1712 47.6383 81.7812 47.6571 81.3903 47.6571C80.9995 47.6571 80.6094 47.6383 80.2202 47.5997C79.8318 47.5612 79.445 47.5038 79.0623 47.4267C78.6788 47.3504 78.3002 47.2552 77.9256 47.1412C77.5519 47.0272 77.1839 46.8951 76.8233 46.7442C76.4618 46.5941 76.1085 46.426 75.7641 46.2414C75.4189 46.056 75.0844 45.8543 74.7596 45.6361C74.4341 45.4179 74.1207 45.1841 73.8188 44.9348C73.5161 44.6854 73.2272 44.4221 72.9506 44.1449C72.674 43.8668 72.412 43.5757 72.164 43.2722C71.9159 42.9687 71.6834 42.6537 71.4663 42.3273C71.2493 42.0008 71.0485 41.6637 70.8641 41.3175C70.6797 40.9714 70.5133 40.6162 70.3631 40.2537C70.2138 39.8903 70.0824 39.5212 69.969 39.1456C69.8556 38.7691 69.7601 38.3885 69.6842 38.0038C69.6075 37.6183 69.5504 37.2303 69.512 36.8391C69.4737 36.4486 69.4549 36.0566 69.4549 35.6637C69.4549 35.2708 69.4737 34.8787 69.512 34.4883C69.5504 34.097 69.6075 33.7091 69.6842 33.3235C69.7601 32.9389 69.8556 32.5583 69.969 32.1818C70.0824 31.8061 70.2138 31.437 70.3631 31.0736C70.5133 30.7111 70.6797 30.3559 70.8641 30.0098C71.0485 29.6637 71.2493 29.3265 71.4663 29.0001C71.6834 28.6736 71.9159 28.3587 72.164 28.0552C72.412 27.7517 72.674 27.4605 72.9506 27.1825C73.2272 26.9052 73.5161 26.6419 73.8188 26.3926C74.1207 26.1432 74.4341 25.9095 74.7596 25.6913C75.0844 25.4731 75.4189 25.2713 75.7641 25.0859C76.1085 24.9014 76.4618 24.7332 76.8233 24.5831C77.1839 24.4322 77.5519 24.3002 77.9256 24.1861C78.3002 24.0721 78.6788 23.977 79.0623 23.9007C79.445 23.8236 79.8318 23.7662 80.2202 23.7276C80.6094 23.6891 80.9995 23.6702 81.3903 23.6702C81.7812 23.6702 82.1712 23.6891 82.5604 23.7276C82.9497 23.7662 83.3356 23.8236 83.7191 23.9007C84.1026 23.977 84.4813 24.0721 84.855 24.1861C85.2295 24.3002 85.5967 24.4322 85.9582 24.5831C86.3188 24.7332 86.6722 24.9014 87.0165 25.0859C87.3617 25.2713 87.6962 25.4731 88.0218 25.6913C88.3466 25.9095 88.6599 26.1432 88.9626 26.3926C89.2645 26.6419 89.5534 26.9052 89.83 27.1825C90.1066 27.4605 90.3686 27.7517 90.6166 28.0552C90.8647 28.3587 91.0972 28.6736 91.3143 29.0001C91.5313 29.3265 91.7321 29.6637 91.9165 30.0098C92.1009 30.3559 92.2682 30.7111 92.4175 31.0736C92.5668 31.437 92.699 31.8061 92.8124 32.1818C92.9259 32.5583 93.0205 32.9389 93.0964 33.3235C93.1731 33.7091 93.2302 34.097 93.2686 34.4883C93.3069 34.8787 93.3257 35.2708 93.3257 35.6637Z" fill="#49DE64"/>
<path d="M29.6691 35.6637C29.6691 36.0566 29.6504 36.4486 29.612 36.8391C29.5737 37.2303 29.5165 37.6183 29.4398 38.0038C29.3639 38.3885 29.2685 38.7691 29.1551 39.1456C29.0416 39.5212 28.9103 39.8903 28.7609 40.2537C28.6108 40.6162 28.4443 40.9714 28.2599 41.3175C28.0755 41.6637 27.8748 42.0008 27.6577 42.3273C27.4407 42.6537 27.2081 42.9687 26.9601 43.2722C26.712 43.5757 26.4501 43.8668 26.1734 44.1449C25.8968 44.4221 25.608 44.6854 25.3052 44.9348C25.0033 45.1841 24.69 45.4179 24.3644 45.6361C24.0397 45.8543 23.7051 46.056 23.3599 46.2414C23.0156 46.426 22.6623 46.5941 22.3016 46.7442C21.9401 46.8951 21.5721 47.0272 21.1984 47.1412C20.8247 47.2552 20.4452 47.3504 20.0625 47.4267C19.679 47.5038 19.2923 47.5612 18.9039 47.5997C18.5146 47.6383 18.1246 47.6571 17.7337 47.6571C17.3429 47.6571 16.9528 47.6383 16.5636 47.5997C16.1744 47.5612 15.7884 47.5038 15.4049 47.4267C15.0214 47.3504 14.6428 47.2552 14.2691 47.1412C13.8945 47.0272 13.5273 46.8951 13.1659 46.7442C12.8052 46.5941 12.4519 46.426 12.1075 46.2414C11.7624 46.056 11.4278 45.8543 11.1022 45.6361C10.7775 45.4179 10.4641 45.1841 10.1614 44.9348C9.85949 44.6854 9.57063 44.4221 9.29401 44.1449C9.01739 43.8668 8.75546 43.5757 8.50741 43.2722C8.25935 42.9687 8.02679 42.6537 7.80974 42.3273C7.59269 42.0008 7.39196 41.6637 7.20754 41.3175C7.02313 40.9714 6.85585 40.6162 6.70653 40.2537C6.5572 39.8903 6.42583 39.5212 6.31159 39.1456C6.19817 38.7691 6.10352 38.3885 6.02763 38.0038C5.95093 37.6183 5.89381 37.2303 5.85546 36.8391C5.81711 36.4486 5.79834 36.0566 5.79834 35.6637C5.79834 35.2708 5.81711 34.8787 5.85546 34.4883C5.89381 34.097 5.95093 33.7091 6.02763 33.3235C6.10352 32.9389 6.19817 32.5583 6.31159 32.1818C6.42583 31.8061 6.5572 31.437 6.70653 31.0736C6.85585 30.7111 7.02313 30.3559 7.20754 30.0098C7.39196 29.6637 7.59269 29.3265 7.80974 29.0001C8.02679 28.6736 8.25935 28.3587 8.50741 28.0552C8.75546 27.7517 9.01739 27.4605 9.29401 27.1825C9.57063 26.9052 9.85949 26.6419 10.1614 26.3926C10.4641 26.1432 10.7775 25.9095 11.1022 25.6913C11.4278 25.4731 11.7624 25.2713 12.1075 25.0859C12.4519 24.9014 12.8052 24.7332 13.1659 24.5831C13.5273 24.4322 13.8945 24.3002 14.2691 24.1861C14.6428 24.0721 15.0214 23.977 15.4049 23.9007C15.7884 23.8236 16.1744 23.7662 16.5636 23.7276C16.9528 23.6891 17.3429 23.6702 17.7337 23.6702C18.1246 23.6702 18.5146 23.6891 18.9039 23.7276C19.2923 23.7662 19.679 23.8236 20.0625 23.9007C20.4452 23.977 20.8247 24.0721 21.1984 24.1861C21.5721 24.3002 21.9401 24.4322 22.3016 24.5831C22.6623 24.7332 23.0156 24.9014 23.3599 25.0859C23.7051 25.2713 24.0397 25.4731 24.3644 25.6913C24.69 25.9095 25.0033 26.1432 25.3052 26.3926C25.608 26.6419 25.8968 26.9052 26.1734 27.1825C26.4501 27.4605 26.712 27.7517 26.9601 28.0552C27.2081 28.3587 27.4407 28.6736 27.6577 29.0001C27.8748 29.3265 28.0755 29.6637 28.2599 30.0098C28.4443 30.3559 28.6108 30.7111 28.7609 31.0736C28.9103 31.437 29.0416 31.8061 29.1551 32.1818C29.2685 32.5583 29.3639 32.9389 29.4398 33.3235C29.5165 33.7091 29.5737 34.097 29.612 34.4883C29.6504 34.8787 29.6691 35.2708 29.6691 35.6637Z" fill="#49DE64"/>
<path d="M65.4761 47.6572C65.4761 49.898 65.0127 52.0315 64.1812 53.9664C66.1208 51.4975 68.5695 49.4863 71.3423 48.0492C67.7658 45.1144 65.4786 40.6532 65.4786 35.6637C65.4786 30.6447 67.796 26.1646 71.4059 23.2306C69.5047 22.211 67.3578 21.6172 65.0249 21.6172C58.5811 21.6172 53.26 25.9029 51.6371 31.8176C59.4305 32.8454 65.4761 39.5475 65.4761 47.6572Z" fill="#49DE64"/>
<path d="M33.6479 35.6637C33.6479 40.6712 31.3403 45.1464 27.7418 48.0812C30.6377 49.5921 33.1681 51.737 35.1379 54.3699C34.1913 52.3267 33.6479 50.0563 33.6479 47.6571C33.6479 39.7156 39.4446 33.1267 47.0039 31.8914C45.4062 25.939 40.0656 21.6172 33.594 21.6172C31.3819 21.6172 29.3313 22.1446 27.5027 23.0682C31.235 25.9964 33.6479 30.5487 33.6479 35.6637Z" fill="#49DE64"/>
</g>
<defs>
<clipPath id="clip0_2_125">
<rect width="99" height="92" fill="white"/>
</clipPath>
</defs>
</svg>