<svg width="85" height="85" viewBox="0 0 85 85" fill="none" xmlns="http://www.w3.org/2000/svg">
<g clip-path="url(#clip0_2_144)">
<path d="M42.3369 -0.335281C41.6409 -0.335281 40.9456 -0.318529 40.251 -0.284326C39.5564 -0.250123 38.8625 -0.199168 38.1706 -0.130763C37.4781 -0.062357 36.7877 0.022801 36.1001 0.124711C35.4117 0.22732 34.7269 0.345983 34.0441 0.482096C33.3621 0.617511 32.6835 0.770377 32.0091 0.939297C31.3341 1.10822 30.6639 1.29389 29.9985 1.49631C29.3325 1.69804 28.6721 1.91652 28.0172 2.15105C27.3624 2.38559 26.7138 2.63617 26.0708 2.90282C25.4285 3.16946 24.7925 3.45146 24.1634 3.74881C23.5351 4.04687 22.9137 4.35958 22.3 4.68764C21.6869 5.01571 21.0816 5.35914 20.4853 5.71722C19.8884 6.0746 19.3011 6.44734 18.7223 6.83405C18.1442 7.22075 17.5758 7.62141 17.0165 8.03603C16.4579 8.45135 15.9097 8.87923 15.372 9.32108C14.8343 9.76292 14.3078 10.2173 13.7924 10.685C13.277 11.1527 12.7735 11.6322 12.2811 12.125C11.7895 12.6171 11.3104 13.1211 10.8431 13.6369C10.3758 14.1527 9.92184 14.6798 9.48039 15.2179C9.03894 15.7561 8.61143 16.3047 8.19648 16.8645C7.78222 17.4237 7.38192 17.9925 6.99556 18.5712C6.6092 19.1505 6.23679 19.7383 5.87972 20.3358C5.52196 20.9326 5.17884 21.5385 4.85106 22.152C4.52328 22.7663 4.21085 23.3882 3.91306 24.0171C3.61597 24.6467 3.33422 25.2833 3.06781 25.9262C2.80141 26.5698 2.55104 27.2189 2.31672 27.8744C2.08239 28.5298 1.8641 29.1908 1.66256 29.8574C1.46031 30.5233 1.2748 31.1941 1.10603 31.8698C0.937262 32.5448 0.784532 33.224 0.649237 33.9073C0.513244 34.59 0.393989 35.2754 0.292169 35.9644C0.190349 36.6533 0.105266 37.3436 0.0369213 38.0368C-0.0314238 38.7292 -0.0823338 39.4237 -0.116506 40.119C-0.150679 40.8142 -0.168114 41.5101 -0.168114 42.2067C-0.168114 42.9026 -0.150679 43.5986 -0.116506 44.2938C-0.0823338 44.989 -0.0314238 45.6835 0.0369213 46.3767C0.105266 47.0691 0.190349 47.7601 0.292169 48.4491C0.393989 49.1373 0.513244 49.8235 0.649237 50.5061C0.784532 51.1888 0.937262 51.868 1.10603 52.5437C1.2748 53.2186 1.46031 53.8894 1.66256 54.556C1.8641 55.2219 2.08239 55.883 2.31672 56.5384C2.55104 57.1938 2.80141 57.8437 3.06781 58.4866C3.33422 59.1301 3.61597 59.766 3.91306 60.3956C4.21085 61.0252 4.52328 61.6465 4.85106 62.2607C5.17884 62.875 5.52196 63.4802 5.87972 64.0777C6.23679 64.6745 6.6092 65.2629 6.99556 65.8416C7.38192 66.4202 7.78222 66.9898 8.19648 67.5489C8.61143 68.108 9.03894 68.6567 9.48039 69.1948C9.92184 69.733 10.3758 70.26 10.8431 70.7758C11.3104 71.2917 11.7895 71.7963 12.2811 72.2884C12.7735 72.7805 13.277 73.2608 13.7924 73.7285C14.3078 74.1954 14.8343 74.6505 15.372 75.0917C15.9097 75.5335 16.4579 75.9621 17.0165 76.3767C17.5758 76.7913 18.1442 77.192 18.7223 77.5787C19.3011 77.9661 19.8884 78.3382 20.4853 78.6962C21.0816 79.0543 21.6869 79.397 22.3 79.7251C22.9137 80.0532 23.5351 80.3666 24.1634 80.6639C24.7925 80.962 25.4285 81.244 26.0708 81.5106C26.7138 81.7766 27.3624 82.0272 28.0172 82.2617C28.6721 82.4962 29.3325 82.7147 29.9985 82.9164C30.6639 83.1189 31.3341 83.3045 32.0091 83.4735C32.6835 83.6431 33.3621 83.7952 34.0441 83.9314C34.7269 84.0668 35.4117 84.1861 36.1001 84.288C36.7877 84.3907 37.4781 84.4758 38.1706 84.5435C38.8625 84.6119 39.5564 84.6629 40.251 84.6971C40.9456 84.7313 41.6409 84.7487 42.3369 84.7487C43.0322 84.7487 43.7275 84.7313 44.4221 84.6971C45.1167 84.6629 45.8106 84.6119 46.5025 84.5435C47.195 84.4758 47.8854 84.3907 48.573 84.288C49.2614 84.1861 49.9469 84.0668 50.629 83.9314C51.311 83.7952 51.9896 83.6431 52.6647 83.4735C53.3391 83.3045 54.0093 83.1189 54.6753 82.9164C55.3406 82.7147 56.001 82.4962 56.6559 82.2617C57.3107 82.0272 57.96 81.7766 58.6023 81.5106C59.2453 81.244 59.8807 80.962 60.5097 80.6639C61.1388 80.3666 61.7594 80.0532 62.3732 79.7251C62.9869 79.397 63.5915 79.0543 64.1885 78.6962C64.7848 78.3382 65.3727 77.9661 65.9508 77.5787C66.5289 77.192 67.098 76.7913 67.6566 76.3767C68.2153 75.9621 68.7634 75.5335 69.3011 75.0917C69.8388 74.6505 70.3653 74.1954 70.8807 73.7285C71.3961 73.2608 71.8996 72.7805 72.392 72.2884C72.8836 71.7963 73.3634 71.2917 73.83 70.7758C74.2973 70.26 74.752 69.733 75.1927 69.1948C75.6342 68.6567 76.0624 68.108 76.4766 67.5489C76.8909 66.9898 77.2912 66.4202 77.6776 65.8416C78.0639 65.2629 78.4363 64.6745 78.7941 64.0777C79.1519 63.4802 79.4943 62.875 79.8221 62.2607C80.1498 61.6465 80.463 61.0252 80.7601 60.3956C81.0578 59.766 81.3396 59.1301 81.6053 58.4866C81.8717 57.8437 82.1221 57.1938 82.3564 56.5384C82.5907 55.883 82.809 55.2219 83.0106 54.556C83.2128 53.8894 83.3983 53.2186 83.5671 52.5437C83.7365 51.868 83.8886 51.1888 84.0246 50.5061C84.1599 49.8235 84.2791 49.1373 84.3809 48.4491C84.4828 47.7601 84.5685 47.0691 84.6362 46.3767C84.7045 45.6835 84.7554 44.989 84.7896 44.2938C84.8238 43.5986 84.8412 42.9026 84.8412 42.2067C84.8412 41.5101 84.8238 40.8142 84.7896 40.119C84.7554 39.4237 84.7045 38.7292 84.6362 38.0368C84.5685 37.3436 84.4828 36.6533 84.3809 35.9644C84.2791 35.2754 84.1599 34.59 84.0246 33.9073C83.8886 33.224 83.7365 32.5448 83.5671 31.8698C83.3983 31.1941 83.2128 30.5233 83.0106 29.8574C82.809 29.1908 82.5907 28.5298 82.3564 27.8744C82.1221 27.2189 81.8717 26.5698 81.6053 25.9262C81.3396 25.2833 81.0578 24.6467 80.7601 24.0171C80.463 23.3882 80.1498 22.7663 79.8221 22.152C79.4943 21.5385 79.1519 20.9326 78.7941 20.3358C78.4363 19.7383 78.0639 19.1505 77.6776 18.5712C77.2912 17.9925 76.8909 17.4237 76.4766 16.8645C76.0624 16.3047 75.6342 15.7561 75.1927 15.2179C74.752 14.6798 74.2973 14.1527 73.83 13.6369C73.3634 13.1211 72.8836 12.6171 72.392 12.125C71.8996 11.6322 71.3961 11.1527 70.8807 10.685C70.3653 10.2173 69.8388 9.76292 69.3011 9.32108C68.7634 8.87923 68.2153 8.45135 67.6566 8.03603C67.098 7.62141 66.5289 7.22075 65.9508 6.83405C65.3727 6.44734 64.7848 6.0746 64.1885 5.71722C63.5915 5.35914 62.9869 5.01571 62.3732 4.68764C61.7594 4.35958 61.1388 4.04687 60.5097 3.74881C59.8807 3.45146 59.2453 3.16946 58.6023 2.90282C57.96 2.63617 57.3107 2.38559 56.6559 2.15105C56.001 1.91652 55.3406 1.69804 54.6753 1.49631C54.0093 1.29389 53.3391 1.10822 52.6647 0.939297C51.9896 0.770377 51.311 0.617511 50.629 0.482096C49.9469 0.345983 49.2614 0.22732 48.573 0.124711C47.8854 0.022801 47.195 -0.062357 46.5025 -0.130763C45.8106 -0.199168 45.1167 -0.250123 44.4221 -0.284326C43.7275 -0.318529 43.0322 -0.335281 42.3369 -0.335281ZM42.3369 78.6711C41.7406 78.6711 41.1444 78.6564 40.5488 78.6271C39.9532 78.5978 39.359 78.5538 38.7655 78.4959C38.172 78.4373 37.5807 78.364 36.9907 78.2767C36.4014 78.1888 35.8141 78.0869 35.229 77.9703C34.6439 77.8544 34.063 77.7232 33.4841 77.5787C32.906 77.4335 32.3313 77.2744 31.7609 77.1013C31.1904 76.9275 30.6241 76.7404 30.0627 76.5394C29.5013 76.3383 28.9455 76.124 28.3945 75.8958C27.8436 75.6668 27.2989 75.4253 26.7598 75.1699C26.2207 74.9151 25.6886 74.647 25.1628 74.3657C24.6369 74.0844 24.1181 73.7899 23.6069 73.4834C23.095 73.1763 22.5915 72.8573 22.0956 72.5258C21.6005 72.1942 21.113 71.8508 20.6339 71.4955C20.1548 71.1395 19.6854 70.7724 19.2244 70.394C18.7635 70.0157 18.3122 69.6255 17.8701 69.2248C17.4286 68.8242 16.9969 68.4131 16.575 67.9908C16.1538 67.5692 15.7423 67.1371 15.342 66.6945C14.9417 66.2527 14.5526 65.8011 14.1739 65.3397C13.7959 64.8783 13.4291 64.4078 13.0741 63.9283C12.7184 63.4495 12.3753 62.9615 12.044 62.4653C11.7128 61.969 11.394 61.465 11.0879 60.9534C10.781 60.441 10.4874 59.9224 10.2064 59.3961C9.92533 58.8698 9.65683 58.3365 9.40228 57.7969C9.14703 57.2574 8.90573 56.7122 8.67768 56.1608C8.44963 55.6093 8.23484 55.053 8.03399 54.4911C7.83313 53.9292 7.64623 53.3624 7.47328 52.7914C7.29962 52.2205 7.14132 51.6453 6.99626 51.0666C6.8512 50.488 6.72078 49.9058 6.60432 49.3202C6.48785 48.7353 6.38603 48.1475 6.29886 47.557C6.21099 46.9665 6.13846 46.3746 6.07988 45.7806C6.02129 45.1866 5.97736 44.5918 5.94807 43.9957C5.91878 43.3996 5.90413 42.8035 5.90413 42.2067C5.90413 41.6099 5.91878 41.0131 5.94807 40.417C5.97736 39.8209 6.02129 39.2262 6.07988 38.6322C6.13846 38.0382 6.21099 37.4463 6.29886 36.8557C6.38603 36.2659 6.48785 35.6782 6.60432 35.0925C6.72078 34.5076 6.8512 33.9255 6.99626 33.3461C7.14132 32.7674 7.29962 32.1923 7.47328 31.6213C7.64623 31.0503 7.83313 30.4835 8.03399 29.9216C8.23484 29.3597 8.44963 28.8034 8.67768 28.252C8.90573 27.7005 9.14703 27.1554 9.40228 26.6158C9.65683 26.0763 9.92533 25.5437 10.2064 25.0174C10.4874 24.4911 10.781 23.9717 11.0879 23.4601C11.394 22.9478 11.7128 22.4438 12.044 21.9475C12.3753 21.4519 12.7184 20.964 13.0741 20.4845C13.4291 20.0049 13.7959 19.5352 14.1739 19.0738C14.5526 18.6124 14.9417 18.1608 15.342 17.7182C15.7423 17.2764 16.1538 16.8443 16.575 16.422C16.9969 16.0004 17.4286 15.5886 17.8701 15.1879C18.3122 14.7872 18.7635 14.3978 19.2244 14.0187C19.6854 13.6404 20.1548 13.2732 20.6339 12.918C21.113 12.5627 21.6005 12.2185 22.0956 11.887C22.5915 11.5554 23.095 11.2364 23.6069 10.93C24.1181 10.6229 24.6369 10.329 25.1628 10.0477C25.6886 9.76641 26.2207 9.49768 26.7598 9.2429C27.2989 8.98743 27.8436 8.74591 28.3945 8.51766C28.9455 8.28941 29.5013 8.07442 30.0627 7.87339C30.6241 7.67236 31.1904 7.48529 31.7609 7.31219C32.3313 7.13908 32.906 6.97993 33.4841 6.83474C34.063 6.68956 34.6439 6.55903 35.229 6.44246C35.8141 6.32589 36.4014 6.22398 36.9907 6.13673C37.5807 6.04878 38.172 5.97618 38.7655 5.91755C39.359 5.85892 39.9532 5.81494 40.5488 5.78562C41.1444 5.75631 41.7406 5.74165 42.3369 5.74165C42.9332 5.74165 43.5288 5.75631 44.1243 5.78562C44.7199 5.81494 45.3141 5.85892 45.9076 5.91755C46.5011 5.97618 47.0925 6.04878 47.6825 6.13673C48.2725 6.22398 48.8597 6.32589 49.4441 6.44246C50.0292 6.55903 50.6108 6.68956 51.189 6.83474C51.7671 6.97993 52.3418 7.13908 52.9122 7.31219C53.4827 7.48529 54.049 7.67236 54.6104 7.87339C55.1718 8.07442 55.7276 8.28941 56.2786 8.51766C56.8295 8.74591 57.3742 8.98743 57.9133 9.2429C58.4524 9.49768 58.9852 9.76641 59.511 10.0477C60.0369 10.329 60.555 10.6229 61.0669 10.93C61.5781 11.2364 62.0816 11.5554 62.5775 11.887C63.0733 12.2185 63.5601 12.5627 64.0392 12.918C64.5183 13.2732 64.9884 13.6404 65.4494 14.0187C65.9097 14.3978 66.3616 14.7872 66.803 15.1879C67.2452 15.5886 67.6769 16.0004 68.0981 16.422C68.52 16.8443 68.9308 17.2764 69.3311 17.7182C69.7314 18.1608 70.1212 18.6124 70.4992 19.0738C70.8772 19.5352 71.2441 20.0049 71.5997 20.4845C71.9547 20.964 72.2978 21.4519 72.6291 21.9475C72.9604 22.4438 73.2791 22.9478 73.5859 23.4601C73.8921 23.9717 74.1864 24.4911 74.4674 25.0174C74.7485 25.5437 75.0163 26.0763 75.2708 26.6158C75.5261 27.1554 75.7674 27.7005 75.9954 28.252C76.2242 28.8034 76.4383 29.3597 76.6391 29.9216C76.84 30.4835 77.0269 31.0503 77.2005 31.6213C77.3735 32.1923 77.5325 32.7674 77.6769 33.3461C77.8219 33.9255 77.9523 34.5076 78.0688 35.0925C78.1853 35.6782 78.2871 36.2659 78.375 36.8557C78.4621 37.4463 78.5354 38.0382 78.5932 38.6322C78.6518 39.2262 78.6958 39.8209 78.725 40.417C78.7543 41.0131 78.769 41.6099 78.769 42.2067C78.769 42.8035 78.7543 43.3996 78.725 43.9957C78.6958 44.5918 78.6518 45.1866 78.5932 45.7806C78.5354 46.3746 78.4621 46.9665 78.375 47.557C78.2871 48.1475 78.1853 48.7353 78.0688 49.3202C77.9523 49.9058 77.8219 50.488 77.6769 51.0666C77.5325 51.6453 77.3735 52.2205 77.2005 52.7914C77.0269 53.3624 76.84 53.9292 76.6391 54.4911C76.4383 55.053 76.2242 55.6093 75.9954 56.1608C75.7674 56.7122 75.5261 57.2574 75.2708 57.7969C75.0163 58.3365 74.7485 58.8698 74.4674 59.3961C74.1864 59.9224 73.8921 60.441 73.5859 60.9534C73.2791 61.465 72.9604 61.969 72.6291 62.4653C72.2978 62.9615 71.9547 63.4495 71.5997 63.9283C71.2441 64.4078 70.8772 64.8783 70.4992 65.3397C70.1212 65.8011 69.7314 66.2527 69.3311 66.6945C68.9308 67.1371 68.52 67.5692 68.0981 67.9908C67.6769 68.4131 67.2452 68.8242 66.803 69.2248C66.3616 69.6255 65.9097 70.0157 65.4494 70.394C64.9884 70.7724 64.5183 71.1395 64.0392 71.4955C63.5601 71.8508 63.0733 72.1942 62.5775 72.5258C62.0816 72.8573 61.5781 73.1763 61.0669 73.4834C60.555 73.7899 60.0369 74.0844 59.511 74.3657C58.9852 74.647 58.4524 74.9151 57.9133 75.1699C57.3742 75.4253 56.8295 75.6668 56.2786 75.8958C55.7276 76.124 55.1718 76.3383 54.6104 76.5394C54.049 76.7404 53.4827 76.9275 52.9122 77.1013C52.3418 77.2744 51.7671 77.4335 51.189 77.5787C50.6108 77.7232 50.0292 77.8544 49.4441 77.9703C48.8597 78.0869 48.2725 78.1888 47.6825 78.2767C47.0925 78.364 46.5011 78.4373 45.9076 78.4959C45.3141 78.5538 44.7199 78.5978 44.1243 78.6271C43.5288 78.6564 42.9332 78.6711 42.3369 78.6711ZM26.8526 37.3143C26.4167 37.2745 25.985 37.2075 25.5575 37.1126C25.13 37.0177 24.7102 36.8955 24.298 36.7475C23.8865 36.5989 23.4855 36.4251 23.0957 36.2247C22.7058 36.0251 22.3299 35.8017 21.9687 35.5539C21.6074 35.3061 21.2636 35.0367 20.9365 34.7449C20.6102 34.4532 20.3026 34.1418 20.0153 33.811C19.7287 33.4801 19.4636 33.1325 19.2203 32.7681C18.9776 32.4031 18.7593 32.0248 18.5647 31.6318C18.5201 31.541 18.4803 31.4475 18.4454 31.3526C18.4106 31.2576 18.3799 31.1613 18.3541 31.0636C18.329 30.9652 18.3081 30.8668 18.292 30.7662C18.276 30.6664 18.2648 30.5659 18.2592 30.4647C18.253 30.3635 18.2516 30.2623 18.2557 30.1618C18.2592 30.0605 18.2683 29.9593 18.2823 29.8588C18.2962 29.759 18.3143 29.6592 18.338 29.5608C18.3618 29.4623 18.3896 29.3653 18.4231 29.2697C18.4559 29.1741 18.4936 29.0798 18.5361 28.9884C18.5779 28.8963 18.6247 28.8062 18.6756 28.719C18.7272 28.6317 18.7823 28.5465 18.8416 28.4649C18.9008 28.3832 18.9643 28.3043 19.0313 28.2282C19.0982 28.1522 19.1693 28.0803 19.2433 28.0112C19.3172 27.9428 19.3946 27.8778 19.4755 27.8164C19.5564 27.755 19.6394 27.6978 19.7259 27.6447C19.8116 27.5924 19.9002 27.5435 19.9916 27.4988C20.0822 27.4548 20.1757 27.4151 20.2705 27.3802C20.3654 27.3446 20.4616 27.3145 20.5593 27.2887C20.6569 27.2629 20.7559 27.242 20.8563 27.2266C20.9561 27.2105 21.0565 27.1994 21.1576 27.1931C21.258 27.1875 21.3592 27.1861 21.4603 27.1903C21.5614 27.1938 21.6625 27.2029 21.7623 27.2161C21.8627 27.2301 21.9617 27.2489 22.0608 27.2727C22.1591 27.2957 22.256 27.3243 22.3516 27.3571C22.4471 27.3906 22.5406 27.4283 22.6326 27.4702C22.7247 27.5128 22.8146 27.5595 22.9018 27.6105C22.989 27.6615 23.0734 27.7166 23.1557 27.7766C23.2373 27.836 23.3161 27.8988 23.3921 27.9665C23.4674 28.0335 23.5399 28.104 23.609 28.1787C23.6773 28.2527 23.7422 28.3302 23.8036 28.4111C23.8649 28.4914 23.9214 28.5752 23.9744 28.661C24.0274 28.7476 24.0762 28.8362 24.1202 28.927C24.1606 29.0079 24.2039 29.0868 24.2492 29.1643C24.2952 29.2418 24.3426 29.3179 24.3935 29.3925C24.4438 29.4672 24.4961 29.5405 24.5512 29.6117C24.6063 29.6829 24.6634 29.7527 24.7227 29.8197C24.782 29.8874 24.8434 29.953 24.9068 30.0173C24.9703 30.0808 25.0359 30.1422 25.1035 30.2022C25.1711 30.2616 25.2402 30.3188 25.3113 30.374C25.3825 30.4291 25.455 30.4821 25.5296 30.5331C25.6042 30.5834 25.6802 30.6315 25.7577 30.6769C25.8351 30.723 25.9139 30.7662 25.9941 30.8067C26.0743 30.8472 26.1559 30.8856 26.2382 30.9212C26.3212 30.9568 26.4048 30.9896 26.4892 31.0196C26.5743 31.0503 26.6601 31.0776 26.7466 31.102C26.833 31.1271 26.9202 31.1487 27.0081 31.1683C27.096 31.1878 27.1838 31.2039 27.2731 31.2179C27.3617 31.2311 27.4509 31.2423 27.5409 31.25C27.6302 31.2576 27.7201 31.2632 27.8101 31.2653C27.9001 31.2674 27.99 31.2667 28.08 31.2632C28.17 31.2597 28.2592 31.2535 28.3492 31.2444C28.4385 31.2353 28.5277 31.2234 28.6163 31.2081C28.7049 31.1934 28.7927 31.176 28.8806 31.1557C28.9685 31.1348 29.055 31.1118 29.1414 31.0859C29.2272 31.0601 29.3123 31.0315 29.3967 31.0001C29.4811 30.9687 29.5648 30.9345 29.6464 30.8982C29.7286 30.8612 29.8095 30.8221 29.8897 30.7802C29.9692 30.7383 30.0474 30.6943 30.1241 30.6476C30.2008 30.6008 30.2761 30.5512 30.35 30.4996C30.424 30.4479 30.4958 30.3942 30.5662 30.3384C30.6367 30.2818 30.705 30.2239 30.772 30.1632C30.8382 30.1031 30.9031 30.0403 30.9658 29.9754C31.0279 29.9112 31.0886 29.8449 31.1472 29.7764C31.2057 29.7073 31.2615 29.6375 31.3159 29.5656L32.1354 28.4712C32.2602 28.3288 32.3969 28.1982 32.5454 28.081C32.6947 27.9637 32.853 27.8611 33.0211 27.7738C33.1891 27.6859 33.3635 27.6147 33.5448 27.5595C33.7261 27.5044 33.9109 27.4667 34.0992 27.4465C34.2875 27.4262 34.4765 27.4241 34.6655 27.4388C34.8545 27.4541 35.04 27.4863 35.2227 27.5365C35.4055 27.5861 35.5819 27.6524 35.7528 27.7354C35.9229 27.8185 36.084 27.9162 36.2361 28.03C36.3881 28.1431 36.5283 28.2694 36.6566 28.4083C36.7856 28.5479 36.8993 28.698 36.9997 28.8593C37.1001 29.0198 37.1845 29.1887 37.2536 29.3653C37.3226 29.5426 37.3742 29.7241 37.4091 29.9105C37.4433 30.0968 37.4607 30.2846 37.4607 30.4745C37.46 30.6636 37.4419 30.8521 37.4063 31.0385C37.3707 31.2241 37.3184 31.4056 37.2487 31.5822C37.1796 31.7588 37.0946 31.927 36.9934 32.0876L36.1733 33.2121C35.9362 33.5318 35.6802 33.8368 35.4076 34.1272C35.1342 34.4169 34.8455 34.6905 34.54 34.9467C34.2352 35.2028 33.9165 35.4409 33.5832 35.66C33.2505 35.8792 32.906 36.0781 32.5503 36.2568C32.1939 36.4355 31.8292 36.5933 31.4547 36.7294C31.0802 36.8655 30.6994 36.9793 30.3117 37.0707C29.9239 37.1622 29.5327 37.2313 29.1366 37.2766C28.7411 37.3227 28.3443 37.345 27.9461 37.3443L26.8526 37.3143ZM66.1084 31.6318C65.9145 32.0248 65.6956 32.4031 65.4529 32.7681C65.2102 33.1325 64.9452 33.4801 64.6578 33.811C64.3705 34.1418 64.0636 34.4532 63.7366 34.7449C63.4095 35.0367 63.0657 35.3061 62.7044 35.5539C62.3432 35.8017 61.9673 36.0251 61.5774 36.2247C61.1883 36.4251 60.7873 36.5989 60.3751 36.7475C59.9629 36.8955 59.5431 37.0177 59.1156 37.1126C58.6881 37.2075 58.2564 37.2745 57.8205 37.3143H56.8491C56.4488 37.3122 56.0498 37.2864 55.6523 37.2375C55.2555 37.1887 54.8622 37.1168 54.4737 37.0219C54.0846 36.9269 53.7031 36.8097 53.3279 36.6694C52.9527 36.5298 52.5873 36.3685 52.2309 36.1856C51.8752 36.0028 51.5307 35.7996 51.1987 35.5763C50.8661 35.3536 50.5481 35.1114 50.244 34.851C49.9399 34.59 49.6526 34.3129 49.3813 34.0183C49.1093 33.7237 48.8562 33.4145 48.6212 33.0906L47.8017 31.9661C47.7006 31.8056 47.6155 31.6374 47.5458 31.4608C47.476 31.2842 47.4237 31.1027 47.3882 30.9163C47.3526 30.7306 47.3345 30.5422 47.3345 30.353C47.3338 30.1632 47.3512 29.9754 47.3861 29.789C47.4209 29.6019 47.4725 29.4205 47.5409 29.2439C47.6099 29.0673 47.6943 28.8983 47.7947 28.7378C47.8952 28.5766 48.0095 28.4265 48.1379 28.2869C48.2662 28.148 48.4064 28.0216 48.5584 27.9079C48.7104 27.7948 48.8715 27.6971 49.0424 27.614C49.2126 27.5309 49.389 27.4646 49.5717 27.4151C49.7544 27.3648 49.9406 27.3327 50.1296 27.3173C50.3179 27.302 50.5069 27.3048 50.6952 27.325C50.8835 27.3453 51.0683 27.383 51.2497 27.4381C51.431 27.4932 51.606 27.5644 51.7741 27.6517C51.9422 27.7396 52.1005 27.8422 52.249 27.9595C52.3983 28.0768 52.535 28.2073 52.6591 28.3497L53.4785 29.4442C53.5322 29.5133 53.588 29.581 53.6452 29.6466C53.7031 29.7122 53.7624 29.7764 53.8237 29.8386C53.8851 29.9007 53.9486 29.9614 54.0141 30.0194C54.079 30.078 54.1459 30.1338 54.2143 30.1883C54.2833 30.242 54.3538 30.2944 54.4256 30.3439C54.4974 30.3942 54.5707 30.4417 54.6453 30.487C54.7199 30.5324 54.7966 30.575 54.874 30.6155C54.9514 30.656 55.0296 30.6943 55.1098 30.7299C55.1893 30.7655 55.2702 30.799 55.3524 30.8298C55.434 30.8605 55.517 30.8891 55.6 30.9142C55.6837 30.94 55.7681 30.9631 55.8532 30.9833C55.9383 31.0036 56.024 31.0217 56.1098 31.0371C56.1963 31.0517 56.2828 31.0643 56.3693 31.0741C56.4564 31.0838 56.5436 31.0908 56.6308 31.0957C56.718 31.0999 56.8051 31.102 56.893 31.1006C56.9802 31.0999 57.0673 31.0964 57.1545 31.0894C57.2417 31.0831 57.3289 31.0741 57.4153 31.0629C57.5018 31.051 57.5883 31.0364 57.6741 31.0196C57.7599 31.0022 57.8449 30.9826 57.9293 30.9603C58.0137 30.9379 58.0974 30.9128 58.1804 30.8856C58.2634 30.8584 58.3457 30.8284 58.4266 30.7956C58.5082 30.7627 58.5884 30.7278 58.6672 30.6902C58.746 30.6532 58.8241 30.6134 58.9001 30.5708C58.9768 30.5282 59.0521 30.4835 59.1261 30.4368C59.1993 30.39 59.2718 30.3404 59.3423 30.2895C59.4134 30.2378 59.4824 30.1841 59.5501 30.1289C59.617 30.0731 59.6833 30.0152 59.7468 29.9558C59.8109 29.8958 59.873 29.8344 59.933 29.7709C59.9929 29.7073 60.0508 29.6417 60.1073 29.5747C60.1631 29.5077 60.2168 29.4386 60.2691 29.3681C60.3207 29.2976 60.3702 29.2257 60.4176 29.1524C60.4651 29.0784 60.5104 29.0037 60.5529 28.927C60.5969 28.8383 60.6457 28.7518 60.6987 28.6673C60.751 28.5828 60.8082 28.5019 60.8689 28.423C60.9295 28.3441 60.9937 28.2687 61.062 28.1961C61.1304 28.1242 61.2022 28.0551 61.2768 27.9895C61.3522 27.9246 61.4296 27.8632 61.5105 27.8053C61.5921 27.748 61.6751 27.6943 61.7615 27.6447C61.848 27.5951 61.9366 27.5505 62.0272 27.5093C62.1179 27.4688 62.21 27.4325 62.3041 27.4011C62.3983 27.369 62.4938 27.3425 62.5907 27.3201C62.6877 27.2978 62.7853 27.2803 62.8836 27.2678C62.9827 27.2545 63.0817 27.2468 63.1807 27.244C63.2798 27.2413 63.3795 27.2433 63.4785 27.2496C63.5776 27.2566 63.6759 27.2685 63.7742 27.2845C63.8719 27.3013 63.9688 27.3222 64.065 27.3487C64.1613 27.3746 64.2554 27.4053 64.3482 27.4409C64.4409 27.4758 64.5323 27.5156 64.6209 27.5595C64.7129 27.6014 64.8022 27.6475 64.8887 27.6978C64.9758 27.7487 65.0602 27.8032 65.1418 27.8618C65.2234 27.9211 65.3022 27.9832 65.3775 28.0503C65.4529 28.1166 65.5247 28.1871 65.593 28.2611C65.6614 28.3343 65.7255 28.4118 65.7869 28.4921C65.8476 28.5724 65.9041 28.6554 65.9564 28.7413C66.0087 28.8271 66.0568 28.9151 66.1007 29.0058C66.1447 29.0966 66.1837 29.1887 66.2179 29.2836C66.2528 29.3779 66.2828 29.4742 66.3072 29.5719C66.3323 29.669 66.3525 29.7674 66.3678 29.8672C66.3832 29.9663 66.393 30.0668 66.3985 30.1673C66.4041 30.2679 66.4041 30.3684 66.3992 30.4689C66.395 30.5694 66.3853 30.6692 66.3706 30.769C66.356 30.8681 66.3365 30.9673 66.3121 31.065C66.2876 31.1627 66.2584 31.2583 66.2242 31.3533C66.1907 31.4482 66.1517 31.541 66.1084 31.6318ZM58.1546 54.3613C57.9565 54.7082 57.7473 55.0488 57.5269 55.3818C57.3066 55.7154 57.075 56.0407 56.833 56.359C56.5917 56.6773 56.3393 56.9865 56.0777 57.2881C55.8155 57.5896 55.5435 57.8821 55.2618 58.1662C54.9807 58.4496 54.6906 58.7232 54.3907 58.9877C54.0916 59.2523 53.784 59.5071 53.4681 59.7507C53.1515 59.995 52.8279 60.2288 52.4966 60.4515C52.1653 60.6748 51.8264 60.8863 51.4812 61.0874C51.136 61.2877 50.7845 61.4769 50.4267 61.6542C50.069 61.8315 49.7056 61.9976 49.3367 62.1511C48.9685 62.3047 48.5947 62.4457 48.2174 62.5748C47.8394 62.704 47.4572 62.8205 47.0715 62.9239C46.6859 63.0279 46.2974 63.1193 45.9062 63.1975C45.5143 63.2757 45.1209 63.3413 44.7248 63.3936C44.3287 63.446 43.9319 63.4851 43.5336 63.5116C43.1347 63.5374 42.7358 63.5507 42.3369 63.5507C41.9373 63.5507 41.5384 63.5374 41.1402 63.5116C40.7413 63.4851 40.3444 63.446 39.9483 63.3936C39.5529 63.3413 39.1589 63.2757 38.7676 63.1975C38.3757 63.1193 37.9872 63.0279 37.6016 62.9239C37.2159 62.8205 36.8344 62.704 36.4564 62.5748C36.0785 62.4457 35.7053 62.3047 35.3364 62.1511C34.9675 61.9976 34.6049 61.8315 34.2464 61.6542C33.8886 61.4769 33.5371 61.2877 33.1919 61.0874C32.8467 60.8863 32.5085 60.6748 32.1765 60.4515C31.8452 60.2288 31.5217 59.995 31.2057 59.7507C30.8891 59.5071 30.5816 59.2523 30.2824 58.9877C29.9832 58.7232 29.6924 58.4496 29.4113 58.1662C29.1296 57.8821 28.8583 57.5896 28.5961 57.2881C28.3338 56.9865 28.0814 56.6773 27.8401 56.359C27.5981 56.0407 27.3673 55.7154 27.1469 55.3818C26.9265 55.0488 26.7173 54.7082 26.5192 54.3613C26.469 54.274 26.4237 54.1847 26.3832 54.0932C26.3421 54.0018 26.3058 53.909 26.2737 53.8133C26.2424 53.7184 26.2152 53.6221 26.1928 53.5244C26.1705 53.4266 26.1531 53.3275 26.1405 53.2284C26.128 53.1286 26.1203 53.0288 26.1175 52.929C26.1147 52.8284 26.1168 52.7286 26.1238 52.6281C26.1308 52.5283 26.1426 52.4292 26.1594 52.3301C26.1761 52.2309 26.1977 52.1332 26.2242 52.0369C26.2507 51.9399 26.2814 51.8449 26.3177 51.7514C26.3532 51.6572 26.3937 51.5657 26.4383 51.4757C26.483 51.3863 26.5318 51.2991 26.5848 51.2139C26.6385 51.1288 26.6957 51.0471 26.757 50.9675C26.8184 50.8887 26.8833 50.8126 26.9523 50.7393C27.0213 50.6667 27.0932 50.5976 27.1692 50.5313C27.2445 50.4657 27.3233 50.4035 27.4049 50.3456C27.4865 50.2877 27.5709 50.2339 27.6581 50.1844C27.7452 50.1341 27.8338 50.0887 27.9259 50.0482C28.0172 50.0071 28.11 49.9708 28.2055 49.9387C28.3004 49.9072 28.3966 49.88 28.4943 49.8577C28.5919 49.8353 28.6902 49.8179 28.7899 49.8053C28.889 49.7928 28.9887 49.7844 29.0891 49.7816C29.1896 49.7788 29.2893 49.7809 29.389 49.7879C29.4894 49.7949 29.5885 49.8067 29.6875 49.8235C29.7858 49.8402 29.8842 49.8619 29.9804 49.8884C30.0773 49.9149 30.1722 49.9456 30.2656 49.9812C30.3598 50.0175 30.4511 50.0573 30.5411 50.102C30.6304 50.1467 30.7176 50.1962 30.8026 50.2493C30.8877 50.3023 30.9693 50.3596 31.0488 50.421C31.1276 50.4824 31.2043 50.548 31.2769 50.6164C31.3494 50.6855 31.4191 50.7574 31.4847 50.8335C31.5502 50.9089 31.6123 50.9878 31.6702 51.0694C31.7281 51.1511 31.7825 51.2356 31.832 51.3228C31.9645 51.5518 32.1047 51.7758 32.2518 51.9957C32.3997 52.2156 32.5538 52.4306 32.7156 52.6407C32.8767 52.8501 33.0448 53.0546 33.2198 53.2528C33.3942 53.4518 33.5755 53.6451 33.7624 53.8315C33.95 54.0186 34.1432 54.1993 34.3426 54.3739C34.5414 54.5477 34.7457 54.7152 34.9563 54.8764C35.1663 55.037 35.3811 55.1912 35.6014 55.3378C35.8218 55.4844 36.0464 55.624 36.2751 55.7566C36.5046 55.8885 36.7382 56.0128 36.9753 56.1301C37.2124 56.2466 37.4537 56.3555 37.6978 56.4567C37.9426 56.5579 38.1902 56.6508 38.4405 56.7359C38.6909 56.8211 38.9441 56.8979 39.1993 56.9663C39.4553 57.0347 39.7126 57.0947 39.972 57.1457C40.2315 57.1973 40.4923 57.2406 40.7545 57.2748C41.0167 57.3097 41.2796 57.3355 41.544 57.353C41.8076 57.3697 42.0719 57.3788 42.3369 57.3788C42.6012 57.3788 42.8655 57.3697 43.1291 57.353C43.3935 57.3355 43.6564 57.3097 43.9186 57.2748C44.1808 57.2406 44.4417 57.1973 44.7011 57.1457C44.9605 57.0947 45.2186 57.0347 45.4738 56.9663C45.729 56.8979 45.9822 56.8211 46.2326 56.7359C46.4836 56.6508 46.7312 56.5579 46.9753 56.4567C47.2201 56.3555 47.4607 56.2466 47.6978 56.1301C47.9356 56.0128 48.1685 55.8885 48.398 55.7566C48.6274 55.624 48.852 55.4844 49.0717 55.3378C49.2921 55.1912 49.5069 55.037 49.7175 54.8764C49.9274 54.7152 50.1317 54.5477 50.3312 54.3739C50.5299 54.1993 50.7231 54.0186 50.9107 53.8315C51.0976 53.6451 51.2789 53.4518 51.454 53.2528C51.6283 53.0546 51.7964 52.8501 51.9582 52.6407C52.1193 52.4306 52.2734 52.2156 52.4213 51.9957C52.5684 51.7758 52.7086 51.5518 52.8411 51.3228C52.8913 51.2356 52.945 51.1511 53.0029 51.0694C53.0608 50.9878 53.1229 50.9089 53.1884 50.8328C53.254 50.7574 53.3237 50.6848 53.3962 50.6164C53.4695 50.5473 53.5455 50.4824 53.6243 50.421C53.7038 50.3596 53.7854 50.3023 53.8705 50.2486C53.9556 50.1955 54.0427 50.146 54.1327 50.1013C54.222 50.0566 54.314 50.0168 54.4075 49.9805C54.5009 49.9449 54.5958 49.9142 54.6927 49.8877C54.7896 49.8612 54.8873 49.8395 54.9863 49.8228C55.0846 49.806 55.1844 49.7942 55.2841 49.7872C55.3838 49.7802 55.4843 49.7781 55.584 49.7809C55.6844 49.7837 55.7841 49.7914 55.8839 49.8039C55.9829 49.8165 56.0819 49.834 56.1796 49.8563C56.2772 49.8786 56.3734 49.9058 56.4683 49.938C56.5631 49.9694 56.6566 50.0064 56.7479 50.0468C56.8393 50.088 56.9286 50.1334 57.0157 50.183C57.1029 50.2332 57.1873 50.287 57.2689 50.3449C57.3505 50.4028 57.4293 50.465 57.5046 50.5306C57.5806 50.5962 57.6525 50.666 57.7215 50.7386C57.7905 50.8119 57.8554 50.888 57.9168 50.9668C57.9781 51.0464 58.0353 51.1281 58.089 51.2132C58.142 51.2984 58.1909 51.3856 58.2362 51.4757C58.2808 51.565 58.3206 51.6572 58.3568 51.7507C58.3924 51.8442 58.4231 51.9399 58.4496 52.0362C58.4761 52.1332 58.4977 52.2309 58.5144 52.3301C58.5312 52.4285 58.543 52.5283 58.55 52.6281C58.557 52.7279 58.5591 52.8284 58.5563 52.929C58.5535 53.0288 58.5458 53.1286 58.5333 53.2284C58.5207 53.3275 58.5033 53.4266 58.481 53.5244C58.4587 53.6221 58.4315 53.7184 58.3994 53.8133C58.368 53.9083 58.331 54.0018 58.2906 54.0932C58.2494 54.1847 58.2041 54.274 58.1546 54.3613Z" fill="#49DE64"/>
</g>
<defs>
<clipPath id="clip0_2_144">
<rect width="85" height="85" fill="white"/>
</clipPath>
</defs>
</svg>