<svg width="73" height="83" viewBox="0 0 73 83" fill="none" xmlns="http://www.w3.org/2000/svg">
<path d="M30.5962 0.0500623C29.6045 0.070922 28.8097 0.888025 28.824 1.88094V12.6976C28.8169 13.3454 29.1544 13.9509 29.717 14.2817C30.2801 14.6059 30.9689 14.6059 31.5321 14.2817C32.0947 13.9509 32.4322 13.3454 32.4251 12.6976V1.88094C32.4322 1.39462 32.2423 0.923188 31.8976 0.57811C31.5529 0.233031 31.0814 0.0429105 30.5962 0.0500623ZM14.3977 5.47238C13.6661 5.47238 13.0118 5.9158 12.7308 6.59165C12.4564 7.27525 12.6183 8.04944 13.1458 8.56378L20.3485 15.7747C20.7985 16.2467 21.4736 16.4368 22.0999 16.2676C22.7327 16.1054 23.225 15.6126 23.387 14.979C23.5554 14.352 23.3655 13.6762 22.8946 13.2256L15.6919 6.01414C15.3544 5.6625 14.89 5.47238 14.3977 5.47238ZM46.7948 5.47238C46.3239 5.47894 45.8804 5.67621 45.5571 6.01414L38.3544 13.2256C37.8835 13.6762 37.6936 14.352 37.8621 14.979C38.024 15.6126 38.5163 16.1054 39.1492 16.2676C39.7754 16.4368 40.4505 16.2467 40.9006 15.7747L48.1033 8.56378C48.6379 8.04229 48.7927 7.2538 48.5045 6.57079C48.2158 5.88064 47.5407 5.44378 46.7948 5.47238ZM65.146 9.09183C63.8446 9.09183 62.5367 9.59187 61.5449 10.5848L27.0232 45.1475C27.0232 45.1475 21.7552 35.2248 19.1174 32.5768C14.5102 27.9645 5.59834 25.711 3.24923 28.0634L0.0136871 31.2955L10.1983 41.4923L18.0202 64.9778L32.1578 79.132C37.2787 84.2587 45.578 84.2587 50.6989 79.132L70.5479 59.2593C72.5386 57.2663 72.5386 54.0414 70.5479 52.0484C68.5572 50.0554 65.3359 50.0554 63.3452 52.0484L65.146 50.2456C67.1367 48.2526 67.1367 45.0277 65.146 43.0347C63.1553 41.0417 59.934 41.0417 57.9433 43.0347L59.7441 41.2318C61.7348 39.2388 61.7348 36.0139 59.7441 34.0209C57.7534 32.0279 54.5321 32.0279 52.5414 34.0209L68.7471 17.7957C70.7378 15.8027 70.7378 12.5778 68.7471 10.5848C67.7559 9.59187 66.4474 9.09183 65.146 9.09183Z" fill="#49DE64"/>
</svg>