<svg width="81" height="92" viewBox="0 0 81 92" fill="none" xmlns="http://www.w3.org/2000/svg">
<g clip-path="url(#clip0_2_47)">
<path d="M74.8165 80.3383L46.2857 80.5V86.2482C46.2857 89.4305 43.7183 92 40.5181 92C37.3233 92 34.7143 89.4269 34.7143 86.2518V80.5036L5.9846 80.5018C0.831694 80.5018 -1.91471 74.3044 1.52056 70.3674L13.9924 56.0661H11.2496C6.65538 56.0661 4.17114 50.7114 7.15078 47.2381L18.0731 34.5072H16.1295C12.282 34.5072 10.1865 30.4642 12.6436 27.8031L37.0159 1.47885C38.8963 -0.551623 42.1182 -0.551623 43.9985 1.47825L68.3889 27.8025C70.8515 30.4636 68.7507 34.5066 64.903 34.5066H62.9558L73.8673 47.2393C76.8433 50.7144 74.3583 56.0655 69.7667 56.0655H67.0185L79.4903 70.3668C82.9346 74.3367 80.114 80.3383 74.8165 80.3383Z" fill="#49DE64"/>
</g>
<defs>
<clipPath id="clip0_2_47">
<rect width="81" height="92" fill="white"/>
</clipPath>
</defs>
</svg>